<?xml version="1.0" encoding="UTF-8" standalone="no"?>
<svg
   xmlns:dc="http://purl.org/dc/elements/1.1/"
   xmlns:cc="http://creativecommons.org/ns#"
   xmlns:rdf="http://www.w3.org/1999/02/22-rdf-syntax-ns#"
   xmlns:svg="http://www.w3.org/2000/svg"
   xmlns="http://www.w3.org/2000/svg"
   xmlns:sodipodi="http://sodipodi.sourceforge.net/DTD/sodipodi-0.dtd"
   xmlns:inkscape="http://www.inkscape.org/namespaces/inkscape"
   inkscape:version="1.0 (4035a4f, 2020-05-01)"
   sodipodi:docname="crownK.svg"
   xml:space="preserve"
   style="enable-background:new 0 0 94.5 94.5;"
   viewBox="0 0 94.5 94.5"
   height="94.5px"
   width="94.5px"
   y="0px"
   x="30px"
   id="Capa_1"
   version="1.1"><metadata
   id="metadata164"><rdf:RDF><cc:Work
       rdf:about=""><dc:format>image/svg+xml</dc:format><dc:type
         rdf:resource="http://purl.org/dc/dcmitype/StillImage" /></cc:Work></rdf:RDF></metadata><defs
   id="defs162" /><sodipodi:namedview
   inkscape:current-layer="Capa_1"
   inkscape:window-maximized="0"
   inkscape:window-y="25"
   inkscape:window-x="0"
   inkscape:cy="47.25"
   inkscape:cx="47.25"
   inkscape:zoom="7.0582011"
   showgrid="false"
   id="namedview160"
   inkscape:window-height="819"
   inkscape:window-width="1252"
   inkscape:pageshadow="2"
   inkscape:pageopacity="0"
   guidetolerance="10"
   gridtolerance="10"
   objecttolerance="10"
   borderopacity="1"
   bordercolor="#666666"
   pagecolor="#ffffff" />
<g
   style="fill:#008000"
   transform="matrix(0.5892054,0,0,0.57988005,19.693403,21.196199)"
   id="g127">
	<g
   style="fill:#008000"
   id="Layer_1_17_">
		<g
   style="fill:#008000"
   id="g124">
			<g
   style="fill:#008000"
   id="g92">
				<g
   style="fill:#008000"
   id="g90">
					<path
   style="fill:#008000"
   id="path88"
   d="m 84.762,41.232 c -4.92,3.529 -11.826,8.222 -14.941,8.222 -0.617,0 -0.815,-0.186 -0.959,-0.361 -1.272,-1.568 -0.928,-7.066 1.025,-16.335 0.193,-0.918 -0.291,-1.841 -1.152,-2.204 -0.861,-0.365 -1.861,-0.066 -2.383,0.71 -6.721,10.021 -9.799,12.123 -11.194,12.123 -1.979,0 -3.99,-5.692 -5.986,-16.92 -0.159,-0.896 -0.915,-1.549 -1.813,-1.601 v -0.011 c -0.019,0 -0.037,0.004 -0.056,0.004 -0.019,0 -0.04,-0.004 -0.058,-0.004 v 0.011 c -0.895,0.052 -1.649,0.705 -1.811,1.601 -1.998,11.228 -4.011,16.92 -5.988,16.92 -1.396,0 -4.472,-2.103 -11.192,-12.123 -0.521,-0.776 -1.521,-1.075 -2.384,-0.71 -0.862,0.363 -1.346,1.286 -1.152,2.204 1.952,9.269 2.299,14.767 1.024,16.335 -0.141,0.176 -0.342,0.361 -0.958,0.361 -3.115,0 -10.021,-4.692 -14.943,-8.222 -0.778,-0.559 -1.845,-0.468 -2.52,0.209 -0.676,0.674 -0.765,1.741 -0.207,2.52 11.253,14.392 9.135,30.91 9.135,30.91 -0.041,0.229 -0.063,0.463 -0.063,0.709 0,4.058 5.682,5.664 10.631,6.61 5.453,1.045 12.635,1.627 20.266,1.647 v 0.002 c 0.073,0 0.147,0 0.22,-0.002 0.073,0.002 0.146,0.002 0.221,0.002 v -0.002 c 7.629,-0.021 14.812,-0.603 20.263,-1.647 4.95,-0.946 10.633,-2.555 10.633,-6.61 0,-0.246 -0.022,-0.479 -0.063,-0.709 0,0 -2.117,-16.521 9.134,-30.91 0.559,-0.778 0.471,-1.846 -0.205,-2.52 -0.679,-0.675 -1.744,-0.767 -2.524,-0.209 z m -37.24,37.006 h -0.015 c -0.07,0 -0.137,0.003 -0.206,0.003 -0.07,0 -0.135,-0.003 -0.205,-0.003 H 47.081 C 34.954,78.203 26.937,76.792 23.399,75.581 26.937,74.368 34.954,72.957 47.081,72.923 h 0.029 c 0.063,0 0.126,0 0.19,0 0.064,0 0.124,0 0.19,0 h 0.03 c 12.126,0.034 20.142,1.445 23.681,2.658 -3.537,1.211 -11.553,2.622 -23.679,2.657 z" />
				</g>
			</g>
			<g
   style="fill:#008000"
   id="g98">
				<g
   style="fill:#008000"
   id="g96">
					<circle
   style="fill:#008000"
   id="circle94"
   r="5.914"
   cy="16.573"
   cx="47.301998" />
				</g>
			</g>
			<g
   style="fill:#008000"
   id="g104">
				<g
   style="fill:#008000"
   id="g102">
					<circle
   style="fill:#008000"
   id="circle100"
   r="4.928"
   cy="23.718"
   cx="22.339001" />
				</g>
			</g>
			<g
   style="fill:#008000"
   id="g110">
				<g
   style="fill:#008000"
   id="g108">
					<circle
   style="fill:#008000"
   id="circle106"
   r="4.928"
   cy="23.718"
   cx="71.855003" />
				</g>
			</g>
			<g
   style="fill:#008000"
   id="g116">
				<g
   style="fill:#008000"
   id="g114">
					<circle
   style="fill:#008000"
   id="circle112"
   r="3.322"
   cy="37.758999"
   cx="3.322" />
				</g>
			</g>
			<g
   style="fill:#008000"
   id="g122">
				<g
   style="fill:#008000"
   id="g120">
					<circle
   style="fill:#008000"
   id="circle118"
   r="3.322"
   cy="37.758999"
   cx="91.178001" />
				</g>
			</g>
		</g>
	</g>
</g>
<g
   id="g129">
</g>
<g
   id="g131">
</g>
<g
   id="g133">
</g>
<g
   id="g135">
</g>
<g
   id="g137">
</g>
<g
   id="g139">
</g>
<g
   id="g141">
</g>
<g
   id="g143">
</g>
<g
   id="g145">
</g>
<g
   id="g147">
</g>
<g
   id="g149">
</g>
<g
   id="g151">
</g>
<g
   id="g153">
</g>
<g
   id="g155">
</g>
<g
   id="g157">
</g>
</svg>
